<svg xmlns="http://www.w3.org/2000/svg" width="150" height="150" viewBox="0 0 150 150">
  <defs>
    <linearGradient id="circle-a" x1="50%" x2="50%" y1="0%" y2="100%">
      <stop offset="0%" stop-color="#FFAB5A"/>
      <stop offset="100%" stop-color="#FF49A6"/>
    </linearGradient>
  </defs>
  <path fill="url(#circle-a)" fill-rule="evenodd" d="M10.845772,37.6310205 C10.845622,37.5873645 10.845547,37.543691 10.845547,37.5 C10.845547,16.7893219 27.7078184,0 48.5084845,0 C63.3517521,0 76.1895146,8.54944076 82.3255389,20.9724061 C90.8156534,20.9372028 96.3185087,22.2497523 96.9408833,24.9455531 C98.2453722,30.5959152 77.6151472,40.1834439 50.8619861,46.3598978 C24.108825,52.5363518 1.36360558,52.9628334 0.0591166892,47.3124713 C-0.546574275,44.6889355 3.57656144,41.2166 10.845772,37.6310205 Z M15.2122333,55.0426162 C24.4659485,54.823237 36.8519133,53.1466993 50.233154,50.0573965 C64.8676929,46.6787469 77.6915086,42.3031714 86.166637,38.1039068 C85.842643,58.5360708 69.1065961,75 48.5084845,75 C34.0730066,75 21.5343529,66.9138647 15.2122333,55.0426162 Z M61.1732846,22.9755778 C63.379685,22.9755778 65.1683259,21.1946749 65.1683259,18.9978199 C65.1683259,16.8009648 63.379685,15.0200619 61.1732846,15.0200619 C58.9668842,15.0200619 57.1782433,16.8009648 57.1782433,18.9978199 C57.1782433,21.1946749 58.9668842,22.9755778 61.1732846,22.9755778 Z M46.694186,16.0731839 C49.4676082,16.0731839 51.715911,13.8346077 51.715911,11.0731839 C51.715911,8.31176016 49.4676082,6.07318391 46.694186,6.07318391 C43.9207639,6.07318391 41.672461,8.31176016 41.672461,11.0731839 C41.672461,13.8346077 43.9207639,16.0731839 46.694186,16.0731839 Z M30.0648478,32 C34.518659,32 38.1291863,28.4050925 38.1291863,23.9705494 C38.1291863,19.5360064 34.518659,15.9410989 30.0648478,15.9410989 C25.6110366,15.9410989 22.0005093,19.5360064 22.0005093,23.9705494 C22.0005093,28.4050925 25.6110366,32 30.0648478,32 Z" transform="translate(27 45)"/>
</svg>
