<svg xmlns="http://www.w3.org/2000/svg" width="150" height="150" viewBox="0 0 150 150">
  <path fill="none" stroke="#A9A29F" stroke-width="2" d="M12.0007181,34.0729146 C13.7390666,14.9684409 29.868147,0 49.5084845,0 C63.1264546,0 75.0563584,7.19620332 81.671608,17.9777113 C90.5324242,17.8712962 96.3026707,19.1811507 96.9408833,21.9455531 C98.2453722,27.5959152 77.6151472,37.1834439 50.8619861,43.3598978 C24.108825,49.5363518 1.36360558,49.9628334 0.0591166892,44.3124713 C-0.57795454,41.5530126 4.01648582,37.8545249 12.0007181,34.0729146 Z M15.6926184,54.0299996 C24.89243,53.7651311 37.0821299,52.0935496 50.233154,49.0573965 C65.4520025,45.5438484 78.7126487,40.9521771 87.1608311,36.6018358 C87.1678786,36.9003737 87.171422,37.1997748 87.171422,37.5 C87.171422,58.2106781 70.3091505,75 49.5084845,75 C34.666175,75 21.8291118,66.4516629 15.6926184,54.0299996 Z M61.1732846,21.9755778 C63.379685,21.9755778 65.1683259,20.1946749 65.1683259,17.9978199 C65.1683259,15.8009648 63.379685,14.0200619 61.1732846,14.0200619 C58.9668842,14.0200619 57.1782433,15.8009648 57.1782433,17.9978199 C57.1782433,20.1946749 58.9668842,21.9755778 61.1732846,21.9755778 Z M46.694186,15.0731839 C49.4676082,15.0731839 51.715911,12.8346077 51.715911,10.0731839 C51.715911,7.31176016 49.4676082,5.07318391 46.694186,5.07318391 C43.9207639,5.07318391 41.672461,7.31176016 41.672461,10.0731839 C41.672461,12.8346077 43.9207639,15.0731839 46.694186,15.0731839 Z M30.0648478,31 C34.518659,31 38.1291863,27.4050925 38.1291863,22.9705494 C38.1291863,18.5360064 34.518659,14.9410989 30.0648478,14.9410989 C25.6110366,14.9410989 22.0005093,18.5360064 22.0005093,22.9705494 C22.0005093,27.4050925 25.6110366,31 30.0648478,31 Z" transform="translate(27 46)"/>
</svg>
