<svg xmlns="http://www.w3.org/2000/svg" width="150" height="150" viewBox="0 0 150 150">
  <defs>
    <linearGradient id="favor-a" x1="50%" x2="50%" y1="0%" y2="100%">
      <stop offset="0%" stop-color="#FFAB5A"/>
      <stop offset="100%" stop-color="#FF49A6"/>
    </linearGradient>
  </defs>
  <path fill="url(#favor-a)" fill-rule="evenodd" d="M41.7252822,69.9435091 L15.9300388,83.3650464 L15.9300388,83.3650464 C15.4401047,83.6199642 14.836283,83.429446 14.5813652,82.939512 C14.4839753,82.7523356 14.4482862,82.5391505 14.4794044,82.3304607 L18.8811377,52.8108717 L-1.51656495,31.5709434 L-1.51656495,31.5709434 C-1.89911165,31.1726013 -1.88630692,30.5395658 -1.48796478,30.1570191 C-1.34295881,30.0177631 -1.15934539,29.9254477 -0.961082573,29.8921186 L27.6068244,25.089682 L40.8304723,-1.41433786 L40.8304723,-1.41433786 C41.0770384,-1.90852771 41.6775397,-2.10926643 42.1717296,-1.86270034 C42.3658642,-1.76584078 42.5232325,-1.60847246 42.620092,-1.41433786 L55.8437399,25.089682 L84.4116469,29.8921186 L84.4116469,29.8921186 C84.9562896,29.9836763 85.3235875,30.4994186 85.2320298,31.0440612 C85.1987006,31.2423241 85.1063853,31.4259375 84.9671293,31.5709434 L64.5694266,52.8108717 L68.9711599,82.3304607 L68.9711599,82.3304607 C69.0526118,82.8767061 68.6758222,83.3855553 68.1295768,83.4670072 C67.9208871,83.4981254 67.7077019,83.4624362 67.5205256,83.3650464 L41.7252822,69.9435091 Z" transform="translate(33 25)"/>
</svg>
