<svg xmlns="http://www.w3.org/2000/svg" width="150" height="150" viewBox="0 0 150 150">
  <defs>
    <linearGradient id="feedback-a" x1="50%" x2="50%" y1="0%" y2="100%">
      <stop offset="0%" stop-color="#FFAA5A"/>
      <stop offset="100%" stop-color="#FF49A5"/>
    </linearGradient>
  </defs>
  <path fill="url(#feedback-a)" fill-rule="evenodd" d="M75,106.458036 C69.2457123,106.458036 63.7982281,105.24283 58.9410524,103.074691 C57.5909909,102.472053 51.4460823,104.183079 40.5063265,108.20777 C46.5432352,100.854299 49.0316292,96.6532541 47.9715086,95.6046344 C41.786298,89.4865252 38,81.2668257 38,72.2290182 C38,53.3248535 54.5654643,38 75,38 C95.4345357,38 112,53.3248535 112,72.2290182 C112,91.133183 95.4345357,106.458036 75,106.458036 Z M93.6350155,77.8839035 C96.8622734,77.7712052 99.3871227,75.0636357 99.2744244,71.8363778 C99.1617261,68.6091199 96.4541566,66.0842705 93.2268987,66.1969688 C89.9996408,66.3096672 87.4747914,69.0172366 87.5874897,72.2444945 C87.7001881,75.4717524 90.4077576,77.9966018 93.6350155,77.8839035 Z M75.8594865,77.8095514 C79.0867444,77.6968531 81.6115938,74.9892836 81.4988955,71.7620257 C81.3861972,68.5347678 78.6786277,66.0099184 75.4513698,66.1226167 C72.2241119,66.235315 69.6992625,68.9428845 69.8119608,72.1701424 C69.9246592,75.3974003 72.6322286,77.9222497 75.8594865,77.8095514 Z M58.0839576,77.7562366 C61.3112155,77.6435383 63.8360649,74.9359688 63.7233666,71.7087109 C63.6106683,68.481453 60.9030988,65.9566036 57.6758409,66.069302 C54.448583,66.1820003 51.9237336,68.8895698 52.0364319,72.1168277 C52.1491302,75.3440856 54.8566997,77.868935 58.0839576,77.7562366 Z"/>
</svg>
