<svg xmlns="http://www.w3.org/2000/svg" width="150" height="150" viewBox="0 0 150 150">
  <defs>
    <linearGradient id="fliter-a" x1="50%" x2="50%" y1="0%" y2="100%">
      <stop offset="0%" stop-color="#FF817A"/>
      <stop offset="100%" stop-color="#FF49A6"/>
    </linearGradient>
    <linearGradient id="fliter-b" x1="50%" x2="50%" y1="0%" y2="100%">
      <stop offset="0%" stop-color="#FFAB5A"/>
      <stop offset="100%" stop-color="#FF49A6"/>
    </linearGradient>
  </defs>
  <g fill="none" transform="translate(34 39)">
    <path fill="url(#fliter-a)" d="M47.9622642,37.9892912 L47.9622642,38.0373789 C47.9622642,39.3838348 49.0154712,40.4417644 50.3559165,40.4417644 L79.6063477,40.4417644 C80.946793,40.4417644 82,39.3838348 82,38.0373789 L82,37.9892912 C82,36.6428353 80.946793,35.5849057 79.6063477,35.5849057 L50.3559165,35.5849057 C49.0633442,35.5849057 47.9622642,36.6428353 47.9622642,37.9892912 Z M79.6063477,50.9248853 L50.3559165,50.9248853 C49.0154712,50.9248853 47.9622642,51.9828149 47.9622642,53.3292708 L47.9622642,53.3773585 C47.9622642,54.7238144 49.0154712,55.781744 50.3559165,55.781744 L79.6063477,55.781744 C80.946793,55.781744 82,54.7238144 82,53.3773585 L82,53.3292708 C82,52.0309026 80.946793,50.9248853 79.6063477,50.9248853 Z M79.6063477,66.3129526 L50.3559165,66.3129526 C49.0154712,66.3129526 47.9622642,67.3708822 47.9622642,68.7173381 L47.9622642,68.7654258 C47.9622642,70.1118817 49.0154712,71.1698113 50.3559165,71.1698113 L79.6063477,71.1698113 C80.946793,71.1698113 82,70.1118817 82,68.7654258 L82,68.7173381 C82,67.3708822 80.946793,66.3129526 79.6063477,66.3129526 Z"/>
    <path fill="url(#fliter-b)" d="M56.5802483,0 L6.87002713,0 C1.04682979,0 -2.12515576,6.88914819 1.6149466,11.386231 L21.0256044,33.7281214 L21.0256044,62.8634772 C21.0256044,63.915986 21.3096628,64.1551925 21.7357504,64.5857643 L38.2584811,81.2823804 C38.3531672,81.378063 38.4951964,81.4737456 38.6372256,81.5694282 C38.9686271,81.8086348 39.5367439,82 39.9628315,82 C40.2468899,82 40.8623498,81.9521587 41.2884374,81.5694282 C41.5724958,81.378063 41.9985834,80.8996499 42.1879557,80.4690782 C42.2826419,80.1820303 42.377328,79.8471412 42.377328,79.5600933 L42.377328,33.68028 L61.7879858,11.3383897 C65.5754312,6.88914819 62.4034457,1.46064931e-14 56.5802483,1.46064931e-14 L56.5802483,0 Z"/>
  </g>
</svg>
