<svg xmlns="http://www.w3.org/2000/svg" width="150" height="150" viewBox="0 0 150 150">
  <path fill="#B9B3B0" d="M79,24.1678322 C79,10.8409091 68.6634778,0 55.9809666,0 C49.7144993,0 43.7865471,2.73776224 39.5039363,7.40297201 C35.2055805,2.73776224 29.2776284,0 23.0190334,0 C10.3286497,0 0,10.833042 0,24.1678322 C0,24.6162587 0.0393622632,25.0174825 0.0787245264,25.3400349 C0.0708520878,25.4501748 0.0629796492,25.5524475 0.0629795789,25.6704545 C0.0629795789,28.0305944 0.629795718,30.6188811 1.73981068,33.3802448 C1.77917294,33.4825175 1.8106627,33.5769231 1.85002496,33.6634616 C8.86437476,50.6879371 35.866866,70.2692308 37.0162432,71.173951 C37.7326358,71.7325175 38.5749876,72 39.4330842,72 C40.2990533,72 41.1492775,71.7167832 41.8735427,71.1503497 C42.8575985,70.3715035 65.8845043,53.6066433 75.032287,37.7307693 C75.3786747,37.1958042 75.6384654,36.6765735 75.8746388,36.2281468 C75.9454908,36.0865384 76.0084704,35.9449301 76.0871948,35.8033217 L76.1186846,35.7403846 C76.1501744,35.6853146 76.1816642,35.6302447 76.2210264,35.583042 C76.7720977,34.5052448 77.2050822,33.4982517 77.5514699,32.5227273 C78.4961634,30.0052448 78.9685102,27.770979 78.9685102,25.6783217 C78.9685102,25.520979 78.9606378,25.3715035 78.9527654,25.2534965 C78.9685102,24.9781468 79.0000001,24.6083916 79,24.1678322 L79,24.1678322 Z" transform="translate(36 41)"/>
</svg>
