<svg xmlns="http://www.w3.org/2000/svg" width="150" height="150" viewBox="0 0 150 150">
  <g fill="none" fill-rule="evenodd" transform="translate(55 48)">
    <polygon fill="#3C91FF" points="12 35 12 54.264 19.931 44.632 28 54.264 28 35"/>
    <circle cx="20" cy="20" r="20" fill="#F6C377"/>
    <circle cx="20" cy="20" r="17" stroke="#FFE2B6" stroke-width="2"/>
    <path fill="#3E3835" d="M20.526,12.896 C19.266,12.896 18.24,13.238 17.448,13.958 C16.602,14.678 16.134,15.668 16.026,16.946 L17.952,16.946 C18.024,16.154 18.294,15.56 18.726,15.164 C19.158,14.768 19.77,14.57 20.544,14.57 C21.3,14.57 21.894,14.732 22.29,15.092 C22.65,15.434 22.848,15.92 22.848,16.568 C22.848,17.216 22.632,17.72 22.236,18.062 C21.84,18.404 21.246,18.584 20.454,18.584 L19.536,18.584 L19.536,20.06 L20.472,20.06 C21.318,20.06 21.966,20.24 22.398,20.6 C22.866,20.96 23.1,21.518 23.1,22.274 C23.1,22.922 22.866,23.444 22.434,23.876 C21.93,24.344 21.264,24.596 20.436,24.596 C19.68,24.596 19.068,24.38 18.6,23.948 C18.06,23.48 17.79,22.814 17.754,21.95 L15.774,21.95 C15.882,23.39 16.386,24.488 17.286,25.244 C18.078,25.91 19.14,26.252 20.454,26.252 C21.822,26.252 22.956,25.856 23.82,25.1 C24.63,24.344 25.044,23.372 25.044,22.184 C25.044,21.428 24.828,20.798 24.396,20.312 C24,19.844 23.424,19.484 22.668,19.25 C24.072,18.782 24.792,17.828 24.792,16.424 C24.792,15.326 24.396,14.462 23.64,13.832 C22.848,13.202 21.822,12.896 20.526,12.896 Z"/>
  </g>
</svg>
