<svg xmlns="http://www.w3.org/2000/svg" width="150" height="150" viewBox="0 0 150 150">
  <g fill="none" fill-rule="evenodd" transform="translate(55 48)">
    <polygon fill="#3C91FF" points="12 35 12 54.264 19.931 44.632 28 54.264 28 35"/>
    <circle cx="20" cy="20" r="20" fill="#DEDEDE"/>
    <circle cx="20" cy="20" r="17" stroke="#FFF" stroke-width="2"/>
    <path fill="#3E3835" d="M19.598,11.896 C18.23,11.896 17.114,12.346 16.286,13.282 C15.476,14.146 15.062,15.298 15.044,16.738 L17.006,16.738 C17.042,15.694 17.258,14.92 17.69,14.38 C18.104,13.822 18.716,13.552 19.526,13.552 C20.282,13.552 20.876,13.732 21.272,14.092 C21.668,14.452 21.866,14.992 21.866,15.712 C21.866,16.468 21.56,17.17 20.984,17.818 C20.624,18.196 20.012,18.682 19.148,19.294 C17.69,20.302 16.718,21.076 16.25,21.634 C15.386,22.606 14.972,23.722 14.972,25 L23.828,25 L23.828,23.272 L17.402,23.272 C17.672,22.57 18.5,21.76 19.886,20.842 C21.164,19.978 22.046,19.294 22.55,18.772 C23.378,17.854 23.81,16.846 23.81,15.73 C23.81,14.596 23.414,13.678 22.64,12.958 C21.848,12.238 20.822,11.896 19.598,11.896 Z"/>
  </g>
</svg>
