<svg xmlns="http://www.w3.org/2000/svg" width="150" height="150" viewBox="0 0 150 150">
  <defs>
    <linearGradient id="notice-a" x1="50%" x2="50%" y1="0%" y2="100%">
      <stop offset="0%" stop-color="#FFAA5A"/>
      <stop offset="100%" stop-color="#FF49A5"/>
    </linearGradient>
  </defs>
  <path fill="url(#notice-a)" fill-rule="evenodd" d="M47,39 L103,39 C105.761424,39 108,41.2385763 108,44 L108,108 C108,110.761424 105.761424,113 103,113 L47,113 C44.2385763,113 42,110.761424 42,108 L42,44 L42,44 C42,41.2385763 44.2385763,39 47,39 L47,39 Z M56.5,52 C55.6715729,52 55,52.6715729 55,53.5 L55,58.5 C55,59.3284271 55.6715729,60 56.5,60 L75.5,60 C76.3284271,60 77,59.3284271 77,58.5 L77,53.5 C77,52.6715729 76.3284271,52 75.5,52 L56.5,52 Z M56,69 C55.4477153,69 55,69.4477153 55,70 L55,74 C55,74.5522847 55.4477153,75 56,75 L95,75 C95.5522847,75 96,74.5522847 96,74 L96,74 L96,70 C96,69.4477153 95.5522847,69 95,69 L56,69 Z M56,83 C55.4477153,83 55,83.4477153 55,84 L55,88 C55,88.5522847 55.4477153,89 56,89 L95,89 C95.5522847,89 96,88.5522847 96,88 L96,88 L96,84 C96,83.4477153 95.5522847,83 95,83 L56,83 Z M56,96 C55.4477153,96 55,96.4477153 55,97 L55,101 C55,101.552285 55.4477153,102 56,102 L95,102 C95.5522847,102 96,101.552285 96,101 L96,101 L96,97 C96,96.4477153 95.5522847,96 95,96 L56,96 Z"/>
</svg>
