<svg xmlns="http://www.w3.org/2000/svg" width="150" height="150" viewBox="0 0 150 150">
  <g fill="none" fill-rule="evenodd" transform="translate(15 13)">
    <circle cx="60" cy="60" r="60" fill="#FFD13C"/>
    <path fill="#FFF" fill-rule="nonzero" stroke="#FFD13C" d="M84.9850548,54.3881127 L68.134625,73.4203551 C68.0370771,73.5351862 67.9374655,73.6477274 67.8358535,73.7579074 L67.3037926,74.3587204 C67.0884334,74.6012576 66.8375085,74.7781611 66.5694394,74.8940115 C65.1881246,75.913539 63.5394775,76.5105536 61.7649259,76.5105536 C59.9689071,76.5105536 58.3007578,75.9011385 56.9078498,74.8577035 C56.6698445,74.7418532 56.4462325,74.5781322 56.2520457,74.3586645 L55.9788186,74.0498234 C55.6823012,73.7575736 55.4035856,73.4427571 55.1445966,73.107548 L42.7723995,59.1334516 C41.9514901,58.2065931 41.9514901,56.7036111 42.7723995,55.7783725 C43.5919826,54.8507879 44.9219629,54.8507879 45.7432654,55.7783725 L50.7644644,61.4497319 L53.2152556,64.2177951 L58.3766543,70.0475131 L58.4077988,70.0475131 C59.2406945,71.0910039 60.4349455,71.7575063 61.7765682,71.7575063 C63.0977554,71.7575063 64.277957,71.111057 65.1094772,70.0961099 L65.1381656,70.0961099 L72.7941739,61.4496761 L72.7934862,61.4488941 L82.014631,51.0321958 C82.8351966,50.1046112 84.1652261,50.1046112 84.9850548,51.0321958 C85.8049817,51.9582722 85.8049817,53.4605281 84.9850548,54.3881127 Z M68.234543,61.6760143 C67.5514261,62.4483684 66.4428963,62.4483684 65.7598285,61.6760143 C65.075287,60.9036602 65.075287,59.6509238 65.7598285,58.8793517 L74.9043892,48.5506863 C75.5882429,47.7783321 76.6966254,47.7783321 77.3797914,48.5506863 C78.063596,49.3222584 78.063596,50.5742127 77.3797914,51.3458407 L68.234543,61.6760143 Z M64.0044352,56.8804588 C63.3213183,57.6535949 62.2128376,57.6535949 61.5283943,56.8804588 C60.8452774,56.1088867 60.8452774,54.8568764 61.5283943,54.0853043 L67.9021707,46.8862176 C68.5852876,46.1130815 69.6937684,46.1130815 70.3782116,46.8862176 C71.0613776,47.6577897 71.0613776,48.910582 70.3782116,49.681372 L64.0044352,56.8804588 Z M59.8612275,52.2008094 C59.1777668,52.9738897 58.069286,52.9738897 57.3862183,52.2008094 C56.7017259,51.4292373 56.7017259,50.1772271 57.3862183,49.405655 L61.658327,44.5792656 C62.3414439,43.8069115 63.4499246,43.8069115 64.134417,44.5792656 C64.8174848,45.3516197 64.8174848,46.6043561 64.134417,47.3752021 L59.8612275,52.2008094 L59.8612275,52.2008094 Z M62.6115271,62.9295327 C63.4314049,63.8556092 63.4314049,65.3578092 62.6115271,66.2853938 C61.7902738,67.2106324 60.4602443,67.2106324 59.6407104,66.2853938 L49.8270331,55.2006291 C47.9646479,53.0982864 46.5365672,52.1235573 43.6416468,51.9552 L42.6665375,51.9552 C39.9944923,52.1483025 39.4785931,53.2512267 39.4785931,56.6588685 L39.4016651,53.1539213 L39.4016651,63.0276759 C39.4016651,64.3383375 38.4604021,65.4003174 37.3002922,65.4003174 C36.1398875,65.4002616 35.2,64.3383375 35.2,63.0276201 L35.2,51.9552 C35.2,49.3346031 37.0808557,47.209917 39.4016651,47.209917 L45.2075693,47.209917 C47.2087294,47.2809689 49.0443912,48.0780683 50.517666,49.3802394 C50.6469109,49.4729085 50.7700154,49.5787043 50.8814775,49.7053912 L51.1064159,49.957927 C51.2636844,50.1244944 51.4161632,50.296815 51.563612,50.4746172 L52.005334,50.9743265 L52.005334,50.9496371 L62.6115271,62.9295327 Z"/>
  </g>
</svg>
