<svg xmlns="http://www.w3.org/2000/svg" width="150" height="150" viewBox="0 0 150 150">
  <g fill="none" fill-rule="evenodd" transform="translate(15 13)">
    <circle cx="60" cy="60" r="60" fill="#3CAEFF"/>
    <g fill="#FFF" fill-rule="nonzero" stroke="#3CAEFF" transform="translate(36.098 35.122)">
      <path d="M15.8488263,44.2033785 C15.3011908,45.0585604 14.085365,45.3497818 13.147107,44.8510786 L12.9021779,44.7210069 C11.9639893,44.2218607 11.644408,43.1136876 12.1915573,42.2585056 L17.5387464,33.9073316 C18.0863819,33.0522129 19.3021382,32.7609282 20.2403963,33.2596314 L20.4853254,33.3897664 C21.4236529,33.8889127 21.7430953,34.9970224 21.1959459,35.8522044 L15.8488263,44.2033785 L15.8488263,44.2033785 Z"/>
      <path d="M38.2226607,30.7288196 C47.1379325,16.7553154 41.1145634,2.57900556 38.5192054,0.670579937 C37.0521499,-0.407454083 33.44987,-0.0133445996 30.8090422,0.650695765 C26.1463127,1.8249016 17.5648056,5.38475318 12.3272129,16.0280485 C12.1071545,15.9993919 11.8788464,16.0077095 11.6514337,16.0668422 C7.06877186,17.2497555 -1.23166689,22.8761963 0.153977879,35.708765 C0.255550131,36.6457384 1.03444088,37.3551486 1.96215254,37.3556423 C2.41495768,37.3558483 2.85153106,37.1842994 3.18638284,36.8745883 C4.03406463,36.090918 7.57942739,33.4302078 9.42533364,34.7374297 C9.5481212,34.8243092 9.67909459,34.8881205 9.81237025,34.9408201 C10.2926487,36.2914492 10.9756544,37.6069886 11.917921,38.8504641 L14.162631,36.1528448 C10.8401405,29.7884803 13.6797306,21.9773798 15.6684413,17.8879334 C17.8008519,13.5026937 20.5831411,10.4630797 23.420429,8.36244039 L39.0208437,17.612999 C38.6288189,21.1599843 37.3977457,25.1177143 34.6863791,29.1646631 C30.9295275,34.7712198 27.1358397,37.3893674 24.0861678,38.5718258 C23.6423419,38.5547358 23.2048473,38.6984737 22.8596992,38.9867942 C21.6368118,39.3384711 20.572653,39.4627796 19.7330931,39.482144 L18.3734128,42.7361952 C18.9145734,43.2407723 20.1706517,43.3382437 20.1706517,43.3382437 C21.4844785,43.3077677 22.732371,43.1141894 23.9165675,42.7976022 C24.8624793,44.2980124 24.7901497,47.1495716 24.5486676,48.5584886 C24.4308733,49.2274501 24.6841562,49.9080991 25.2080751,50.3305192 C25.731783,50.7531981 26.441473,50.8499117 27.0562836,50.5823854 C38.7333801,45.4961962 39.4724077,35.3852898 38.2317418,30.7496135 C38.2285442,30.7418158 38.2249629,30.7357726 38.2226607,30.7288196 L38.2226607,30.7288196 Z M3.65527781,32.0416298 C3.96083976,25.1246673 7.91913963,21.8969983 10.4567491,20.5292142 C9.44400758,23.5008582 8.65496964,27.1134743 8.93738101,30.7329784 C7.13649687,30.5306277 5.2605972,31.1558095 3.65527781,32.0416948 L3.65527781,32.0416298 Z M36.3422204,3.90747618 C37.0925675,4.92455806 38.9425667,8.76675189 39.1481079,14.0124043 L26.4246312,6.46792069 C31.0400363,4.02528665 35.2339348,3.76009938 36.3422204,3.90747618 Z M28.326879,45.7771739 C28.3190514,45.5899971 28.3079861,45.4029747 28.293688,45.2161933 C28.1709004,43.6349468 27.8175665,42.4140846 27.3514214,41.4640631 C30.4756612,39.8615028 33.0274041,37.4545433 35.0001908,35.1228317 C34.8441483,38.1272911 33.5931222,42.5157148 28.326879,45.7771089 L28.326879,45.7771739 Z"/>
    </g>
  </g>
</svg>
