<svg xmlns="http://www.w3.org/2000/svg" width="150" height="150" viewBox="0 0 150 150">
  <defs>
    <linearGradient id="release-a" x1="50%" x2="50%" y1="0%" y2="100%">
      <stop offset="0%" stop-color="#FFAA5A"/>
      <stop offset="100%" stop-color="#FF49A5"/>
    </linearGradient>
  </defs>
  <path fill="url(#release-a)" fill-rule="evenodd" d="M77.0852082,71.6320587 L77.0852082,59 C77.0852082,57.3431458 75.7420624,56 74.0852082,56 C72.4283539,56 71.0852082,57.3431458 71.0852082,59 L71.0852082,71.6320587 L58.4531495,71.6320587 C56.7962952,71.6320587 55.4531495,72.9752045 55.4531495,74.6320587 C55.4531495,76.288913 56.7962952,77.6320587 58.4531495,77.6320587 L71.0852082,77.6320587 L71.0852082,90.2641174 C71.0852082,91.9209717 72.4283539,93.2641174 74.0852082,93.2641174 C75.7420624,93.2641174 77.0852082,91.9209717 77.0852082,90.2641174 L77.0852082,77.6320587 L89.7172669,77.6320587 C91.3741211,77.6320587 92.7172669,76.288913 92.7172669,74.6320587 C92.7172669,72.9752045 91.3741211,71.6320587 89.7172669,71.6320587 L77.0852082,71.6320587 Z M75,106 C56.7746033,106 42,91.2253967 42,73 C42,54.7746033 56.7746033,40 75,40 C93.2253967,40 108,54.7746033 108,73 C108,91.2253967 93.2253967,106 75,106 Z"/>
</svg>
