<svg xmlns="http://www.w3.org/2000/svg" width="150" height="150" viewBox="0 0 150 150">
  <path fill="#B9B3B0" fill-rule="evenodd" d="M96.3949573,89.2657368 L119.083377,105.96548 L109.934197,116.655706 L89.9568985,96.7226779 C84.5644043,101.263854 77.6017327,104 70,104 C52.8791728,104 39,90.1208272 39,73 C39,55.8791728 52.8791728,42 70,42 C87.1208272,42 101,55.8791728 101,73 C101,78.9654624 99.3149906,84.5373698 96.3949573,89.2657368 Z M69.7168148,95.7432634 C82.3587807,95.7432634 92.607119,85.4949252 92.607119,72.8529592 C92.607119,60.2109933 82.3587807,49.962655 69.7168148,49.962655 C57.0748489,49.962655 46.8265106,60.2109933 46.8265106,72.8529592 C46.8265106,85.4949252 57.0748489,95.7432634 69.7168148,95.7432634 Z"/>
</svg>
