<svg xmlns="http://www.w3.org/2000/svg" width="150" height="150" viewBox="0 0 150 150">
  <defs>
    <linearGradient id="us-a" x1="50%" x2="50%" y1="0%" y2="100%">
      <stop offset="0%" stop-color="#FFAA5A"/>
      <stop offset="100%" stop-color="#FF49A5"/>
    </linearGradient>
  </defs>
  <path fill="url(#us-a)" fill-rule="evenodd" d="M75.5,110 C55.3416066,110 39,93.6583934 39,73.5 C39,53.3416066 55.3416066,37 75.5,37 C95.6583934,37 112,53.3416066 112,73.5 C112,93.6583934 95.6583934,110 75.5,110 Z M74,60 C76.209139,60 78,58.209139 78,56 C78,53.790861 76.209139,52 74,52 C71.790861,52 70,53.790861 70,56 C70,58.209139 71.790861,60 74,60 Z M74,68 C72.3431458,68 71,69.3431458 71,71 L71,94 C71,95.6568542 72.3431458,97 74,97 C75.6568542,97 77,95.6568542 77,94 L77,71 C77,69.3431458 75.6568542,68 74,68 Z"/>
</svg>
